<svg width="148" height="141" viewBox="0 0 148 141" fill="none" xmlns="http://www.w3.org/2000/svg">
<path d="M 69.398438 3.855469 L 75.179688 3.855469 L 77.660156 4.679688 L 79.585938 6.058594 L 81.242188 8.539062 L 82.066406 11.015625 L 82.34375 26.4375 L 118.140625 26.710938 L 120.34375 27.265625 L 122.273438 28.367188 L 124.203125 30.292969 L 125.304688 32.496094 L 125.578125 35.800781 L 125.027344 38.28125 L 123.375 40.757812 L 121.171875 42.410156 L 118.695312 43.234375 L 82.617188 43.511719 L 82.34375 43.789062 L 82.34375 76.28125 L 84.546875 77.660156 L 90.054688 80.414062 L 94.734375 83.167969 L 101.070312 87.023438 L 111.257812 93.90625 L 116.492188 97.765625 L 121.722656 101.617188 L 123.648438 103.820312 L 124.476562 106.300781 L 124.476562 108.78125 L 123.648438 111.257812 L 121.722656 114.011719 L 119.242188 116.214844 L 117.039062 117.039062 L 113.1875 117.039062 L 110.984375 116.214844 L 107.679688 113.734375 L 101.894531 109.328125 L 96.9375 105.75 L 93.082031 102.996094 L 88.953125 100.242188 L 83.445312 96.664062 L 82.34375 96.386719 L 82.066406 96.664062 L 81.242188 103.820312 L 79.585938 110.15625 L 77.382812 114.835938 L 75.179688 117.867188 L 72.152344 120.898438 L 68.296875 123.375 L 65.265625 124.75 L 60.585938 126.128906 L 55.351562 126.953125 L 43.789062 126.953125 L 38.003906 126.128906 L 33.320312 125.027344 L 28.640625 123.101562 L 25.609375 121.445312 L 22.582031 119.242188 L 19 115.664062 L 16.523438 111.808594 L 15.148438 108.78125 L 13.769531 104.097656 L 13.21875 98.867188 L 13.492188 93.359375 L 14.320312 89.5 L 16.25 84.546875 L 18.453125 81.242188 L 20.929688 78.484375 L 24.234375 75.734375 L 30.015625 72.703125 L 34.148438 71.328125 L 41.03125 69.949219 L 43.234375 69.671875 L 50.945312 69.398438 L 56.453125 69.671875 L 61.960938 70.226562 L 62.515625 69.949219 L 62.789062 11.015625 L 63.617188 8.261719 L 65.265625 6.058594 L 66.644531 4.957031 Z M 49.84375 85.921875 L 44.890625 86.195312 L 39.929688 87.296875 L 37.453125 88.398438 L 35.800781 89.5 L 34.421875 90.601562 L 32.773438 93.359375 L 31.945312 96.386719 L 31.945312 99.414062 L 32.496094 102.171875 L 33.597656 104.648438 L 35.25 106.851562 L 38.003906 108.78125 L 40.757812 109.882812 L 45.164062 110.707031 L 53.148438 110.707031 L 56.730469 109.605469 L 59.210938 107.953125 L 60.859375 105.75 L 61.960938 102.71875 L 62.789062 98.3125 L 62.789062 87.851562 L 61.136719 87.023438 L 55.90625 86.195312 Z M 49.84375 85.921875" fill="#6a3de8"/>
</svg>
