<?xml version="1.0" encoding="UTF-8"?>
<svg version="1.1" xmlns="http://www.w3.org/2000/svg" width="512" height="512">
<path d="M0,0 L21,0 L30,3 L37,8 L43,17 L46,26 L47,82 L177,83 L185,85 L192,89 L199,96 L203,104 L204,116 L202,125 L196,134 L188,140 L179,143 L48,144 L47,145 L47,263 L55,268 L75,278 L92,288 L115,302 L152,327 L171,341 L190,355 L197,363 L200,372 L200,381 L197,390 L190,400 L181,408 L173,411 L159,411 L151,408 L139,399 L118,383 L100,370 L86,360 L71,350 L51,337 L47,336 L46,337 L43,363 L37,386 L29,403 L21,414 L10,425 L-4,434 L-15,439 L-32,444 L-51,447 L-93,447 L-114,444 L-131,440 L-148,433 L-159,427 L-170,419 L-183,406 L-192,392 L-197,381 L-202,364 L-204,345 L-203,325 L-200,311 L-193,293 L-185,281 L-176,271 L-164,261 L-143,250 L-128,245 L-103,240 L-95,239 L-67,238 L-47,239 L-27,241 L-25,240 L-24,26 L-21,16 L-15,8 L-10,4 Z M-71,298 L-89,299 L-107,303 L-116,307 L-122,311 L-127,315 L-133,325 L-136,336 L-136,347 L-134,357 L-130,366 L-124,374 L-114,381 L-104,385 L-88,388 L-59,388 L-46,384 L-37,378 L-31,370 L-27,359 L-24,343 L-24,305 L-30,302 L-49,299 Z " fill="currentColor" transform="translate(252,14)"/>
</svg>
